<svg id="visual" viewBox="0 0 900 600" width="900" height="600" xmlns="http://www.w3.org/2000/svg" xmlns:xlink="http://www.w3.org/1999/xlink" version="1.1"><path d="M0 331L7.2 329.7C14.3 328.3 28.7 325.7 43 315.2C57.3 304.7 71.7 286.3 86 285.5C100.3 284.7 114.7 301.3 128.8 305.3C143 309.3 157 300.7 171.2 302.2C185.3 303.7 199.7 315.3 214 317.7C228.3 320 242.7 313 257 302.2C271.3 291.3 285.7 276.7 300 268.2C314.3 259.7 328.7 257.3 343 271.8C357.3 286.3 371.7 317.7 386 332.3C400.3 347 414.7 345 428.8 333.7C443 322.3 457 301.7 471.2 298.3C485.3 295 499.7 309 514 319C528.3 329 542.7 335 557 324.8C571.3 314.7 585.7 288.3 600 283.7C614.3 279 628.7 296 643 311C657.3 326 671.7 339 686 329C700.3 319 714.7 286 728.8 274.2C743 262.3 757 271.7 771.2 285.3C785.3 299 799.7 317 814 311.8C828.3 306.7 842.7 278.3 857 280.3C871.3 282.3 885.7 314.7 892.8 330.8L900 347L900 0L892.8 0C885.7 0 871.3 0 857 0C842.7 0 828.3 0 814 0C799.7 0 785.3 0 771.2 0C757 0 743 0 728.8 0C714.7 0 700.3 0 686 0C671.7 0 657.3 0 643 0C628.7 0 614.3 0 600 0C585.7 0 571.3 0 557 0C542.7 0 528.3 0 514 0C499.7 0 485.3 0 471.2 0C457 0 443 0 428.8 0C414.7 0 400.3 0 386 0C371.7 0 357.3 0 343 0C328.7 0 314.3 0 300 0C285.7 0 271.3 0 257 0C242.7 0 228.3 0 214 0C199.7 0 185.3 0 171.2 0C157 0 143 0 128.8 0C114.7 0 100.3 0 86 0C71.7 0 57.3 0 43 0C28.7 0 14.3 0 7.2 0L0 0Z" fill="#6d2932"></path><path d="M0 283L7.2 286.8C14.3 290.7 28.7 298.3 43 295.5C57.3 292.7 71.7 279.3 86 281.2C100.3 283 114.7 300 128.8 309.8C143 319.7 157 322.3 171.2 305.8C185.3 289.3 199.7 253.7 214 241.8C228.3 230 242.7 242 257 257.2C271.3 272.3 285.7 290.7 300 298C314.3 305.3 328.7 301.7 343 286.3C357.3 271 371.7 244 386 247.5C400.3 251 414.7 285 428.8 294.2C443 303.3 457 287.7 471.2 275.3C485.3 263 499.7 254 514 253.3C528.3 252.7 542.7 260.3 557 269.7C571.3 279 585.7 290 600 295C614.3 300 628.7 299 643 299C657.3 299 671.7 300 686 294.2C700.3 288.3 714.7 275.7 728.8 277.5C743 279.3 757 295.7 771.2 299.5C785.3 303.3 799.7 294.7 814 291.2C828.3 287.7 842.7 289.3 857 286.2C871.3 283 885.7 275 892.8 271L900 267L900 0L892.8 0C885.7 0 871.3 0 857 0C842.7 0 828.3 0 814 0C799.7 0 785.3 0 771.2 0C757 0 743 0 728.8 0C714.7 0 700.3 0 686 0C671.7 0 657.3 0 643 0C628.7 0 614.3 0 600 0C585.7 0 571.3 0 557 0C542.7 0 528.3 0 514 0C499.7 0 485.3 0 471.2 0C457 0 443 0 428.8 0C414.7 0 400.3 0 386 0C371.7 0 357.3 0 343 0C328.7 0 314.3 0 300 0C285.7 0 271.3 0 257 0C242.7 0 228.3 0 214 0C199.7 0 185.3 0 171.2 0C157 0 143 0 128.8 0C114.7 0 100.3 0 86 0C71.7 0 57.3 0 43 0C28.7 0 14.3 0 7.2 0L0 0Z" fill="#7b3c3c"></path><path d="M0 233L7.2 231.3C14.3 229.7 28.7 226.3 43 224.3C57.3 222.3 71.7 221.7 86 226.3C100.3 231 114.7 241 128.8 240.7C143 240.3 157 229.7 171.2 238C185.3 246.3 199.7 273.7 214 283.5C228.3 293.3 242.7 285.7 257 271C271.3 256.3 285.7 234.7 300 236C314.3 237.3 328.7 261.7 343 273.7C357.3 285.7 371.7 285.3 386 285.2C400.3 285 414.7 285 428.8 271.3C443 257.7 457 230.3 471.2 231.2C485.3 232 499.7 261 514 268C528.3 275 542.7 260 557 250.3C571.3 240.7 585.7 236.3 600 243.3C614.3 250.3 628.7 268.7 643 269.7C657.3 270.7 671.7 254.3 686 251.7C700.3 249 714.7 260 728.8 261.5C743 263 757 255 771.2 257.3C785.3 259.7 799.7 272.3 814 279.2C828.3 286 842.7 287 857 281.3C871.3 275.7 885.7 263.3 892.8 257.2L900 251L900 0L892.8 0C885.7 0 871.3 0 857 0C842.7 0 828.3 0 814 0C799.7 0 785.3 0 771.2 0C757 0 743 0 728.8 0C714.7 0 700.3 0 686 0C671.7 0 657.3 0 643 0C628.7 0 614.3 0 600 0C585.7 0 571.3 0 557 0C542.7 0 528.3 0 514 0C499.7 0 485.3 0 471.2 0C457 0 443 0 428.8 0C414.7 0 400.3 0 386 0C371.7 0 357.3 0 343 0C328.7 0 314.3 0 300 0C285.7 0 271.3 0 257 0C242.7 0 228.3 0 214 0C199.7 0 185.3 0 171.2 0C157 0 143 0 128.8 0C114.7 0 100.3 0 86 0C71.7 0 57.3 0 43 0C28.7 0 14.3 0 7.2 0L0 0Z" fill="#894f48"></path><path d="M0 222L7.2 225.2C14.3 228.3 28.7 234.7 43 237.7C57.3 240.7 71.7 240.3 86 244.5C100.3 248.7 114.7 257.3 128.8 249.8C143 242.3 157 218.7 171.2 204.5C185.3 190.3 199.7 185.7 214 197.8C228.3 210 242.7 239 257 246.2C271.3 253.3 285.7 238.7 300 229.8C314.3 221 328.7 218 343 220.7C357.3 223.3 371.7 231.7 386 231.8C400.3 232 414.7 224 428.8 216.5C443 209 457 202 471.2 197.5C485.3 193 499.7 191 514 194.7C528.3 198.3 542.7 207.7 557 220.7C571.3 233.7 585.7 250.3 600 244.5C614.3 238.7 628.7 210.3 643 195.8C657.3 181.3 671.7 180.7 686 188.8C700.3 197 714.7 214 728.8 227.8C743 241.7 757 252.3 771.2 249.3C785.3 246.3 799.7 229.7 814 216.8C828.3 204 842.7 195 857 197.7C871.3 200.3 885.7 214.7 892.8 221.8L900 229L900 0L892.8 0C885.7 0 871.3 0 857 0C842.7 0 828.3 0 814 0C799.7 0 785.3 0 771.2 0C757 0 743 0 728.8 0C714.7 0 700.3 0 686 0C671.7 0 657.3 0 643 0C628.7 0 614.3 0 600 0C585.7 0 571.3 0 557 0C542.7 0 528.3 0 514 0C499.7 0 485.3 0 471.2 0C457 0 443 0 428.8 0C414.7 0 400.3 0 386 0C371.7 0 357.3 0 343 0C328.7 0 314.3 0 300 0C285.7 0 271.3 0 257 0C242.7 0 228.3 0 214 0C199.7 0 185.3 0 171.2 0C157 0 143 0 128.8 0C114.7 0 100.3 0 86 0C71.7 0 57.3 0 43 0C28.7 0 14.3 0 7.2 0L0 0Z" fill="#966155"></path><path d="M0 244L7.2 238.5C14.3 233 28.7 222 43 216.7C57.3 211.3 71.7 211.7 86 206.3C100.3 201 114.7 190 128.8 193.8C143 197.7 157 216.3 171.2 213.5C185.3 210.7 199.7 186.3 214 183.7C228.3 181 242.7 200 257 213.3C271.3 226.7 285.7 234.3 300 229.2C314.3 224 328.7 206 343 195.3C357.3 184.7 371.7 181.3 386 180.3C400.3 179.3 414.7 180.7 428.8 180.2C443 179.7 457 177.3 471.2 186.2C485.3 195 499.7 215 514 218.8C528.3 222.7 542.7 210.3 557 209.8C571.3 209.3 585.7 220.7 600 217.3C614.3 214 628.7 196 643 192.2C657.3 188.3 671.7 198.7 686 196.2C700.3 193.7 714.7 178.3 728.8 182.8C743 187.3 757 211.7 771.2 215.5C785.3 219.3 799.7 202.7 814 191.2C828.3 179.7 842.7 173.3 857 180.2C871.3 187 885.7 207 892.8 217L900 227L900 0L892.8 0C885.7 0 871.3 0 857 0C842.7 0 828.3 0 814 0C799.7 0 785.3 0 771.2 0C757 0 743 0 728.8 0C714.7 0 700.3 0 686 0C671.7 0 657.3 0 643 0C628.7 0 614.3 0 600 0C585.7 0 571.3 0 557 0C542.7 0 528.3 0 514 0C499.7 0 485.3 0 471.2 0C457 0 443 0 428.8 0C414.7 0 400.3 0 386 0C371.7 0 357.3 0 343 0C328.7 0 314.3 0 300 0C285.7 0 271.3 0 257 0C242.7 0 228.3 0 214 0C199.7 0 185.3 0 171.2 0C157 0 143 0 128.8 0C114.7 0 100.3 0 86 0C71.7 0 57.3 0 43 0C28.7 0 14.3 0 7.2 0L0 0Z" fill="#a27464"></path><path d="M0 136L7.2 143.5C14.3 151 28.7 166 43 174.5C57.3 183 71.7 185 86 180.5C100.3 176 114.7 165 128.8 167.2C143 169.3 157 184.7 171.2 194.7C185.3 204.7 199.7 209.3 214 210.2C228.3 211 242.7 208 257 205.7C271.3 203.3 285.7 201.7 300 190.5C314.3 179.3 328.7 158.7 343 149C357.3 139.3 371.7 140.7 386 142.2C400.3 143.7 414.7 145.3 428.8 155.8C443 166.3 457 185.7 471.2 197.2C485.3 208.7 499.7 212.3 514 211.3C528.3 210.3 542.7 204.7 557 194.8C571.3 185 585.7 171 600 170.2C614.3 169.3 628.7 181.7 643 180.7C657.3 179.7 671.7 165.3 686 162.7C700.3 160 714.7 169 728.8 175.2C743 181.3 757 184.7 771.2 186.5C785.3 188.3 799.7 188.7 814 183.3C828.3 178 842.7 167 857 163.3C871.3 159.7 885.7 163.3 892.8 165.2L900 167L900 0L892.8 0C885.7 0 871.3 0 857 0C842.7 0 828.3 0 814 0C799.7 0 785.3 0 771.2 0C757 0 743 0 728.8 0C714.7 0 700.3 0 686 0C671.7 0 657.3 0 643 0C628.7 0 614.3 0 600 0C585.7 0 571.3 0 557 0C542.7 0 528.3 0 514 0C499.7 0 485.3 0 471.2 0C457 0 443 0 428.8 0C414.7 0 400.3 0 386 0C371.7 0 357.3 0 343 0C328.7 0 314.3 0 300 0C285.7 0 271.3 0 257 0C242.7 0 228.3 0 214 0C199.7 0 185.3 0 171.2 0C157 0 143 0 128.8 0C114.7 0 100.3 0 86 0C71.7 0 57.3 0 43 0C28.7 0 14.3 0 7.2 0L0 0Z" fill="#af8774"></path><path d="M0 164L7.2 160.2C14.3 156.3 28.7 148.7 43 150.2C57.3 151.7 71.7 162.3 86 166.5C100.3 170.7 114.7 168.3 128.8 169.7C143 171 157 176 171.2 177.2C185.3 178.3 199.7 175.7 214 172.8C228.3 170 242.7 167 257 162.3C271.3 157.7 285.7 151.3 300 153C314.3 154.7 328.7 164.3 343 166.2C357.3 168 371.7 162 386 152.5C400.3 143 414.7 130 428.8 124.7C443 119.3 457 121.7 471.2 127.3C485.3 133 499.7 142 514 146C528.3 150 542.7 149 557 147.8C571.3 146.7 585.7 145.3 600 140.8C614.3 136.3 628.7 128.7 643 128.7C657.3 128.7 671.7 136.3 686 142C700.3 147.7 714.7 151.3 728.8 153.2C743 155 757 155 771.2 159.2C785.3 163.3 799.7 171.7 814 169.2C828.3 166.7 842.7 153.3 857 146.2C871.3 139 885.7 138 892.8 137.5L900 137L900 0L892.8 0C885.7 0 871.3 0 857 0C842.7 0 828.3 0 814 0C799.7 0 785.3 0 771.2 0C757 0 743 0 728.8 0C714.7 0 700.3 0 686 0C671.7 0 657.3 0 643 0C628.7 0 614.3 0 600 0C585.7 0 571.3 0 557 0C542.7 0 528.3 0 514 0C499.7 0 485.3 0 471.2 0C457 0 443 0 428.8 0C414.7 0 400.3 0 386 0C371.7 0 357.3 0 343 0C328.7 0 314.3 0 300 0C285.7 0 271.3 0 257 0C242.7 0 228.3 0 214 0C199.7 0 185.3 0 171.2 0C157 0 143 0 128.8 0C114.7 0 100.3 0 86 0C71.7 0 57.3 0 43 0C28.7 0 14.3 0 7.2 0L0 0Z" fill="#bb9b86"></path><path d="M0 112L7.2 115.2C14.3 118.3 28.7 124.7 43 125.5C57.3 126.3 71.7 121.7 86 120C100.3 118.3 114.7 119.7 128.8 119.7C143 119.7 157 118.3 171.2 123.3C185.3 128.3 199.7 139.7 214 146.7C228.3 153.7 242.7 156.3 257 152C271.3 147.7 285.7 136.3 300 128.7C314.3 121 328.7 117 343 120.5C357.3 124 371.7 135 386 138.8C400.3 142.7 414.7 139.3 428.8 133.7C443 128 457 120 471.2 113.5C485.3 107 499.7 102 514 104.5C528.3 107 542.7 117 557 122.5C571.3 128 585.7 129 600 134.5C614.3 140 628.7 150 643 146.3C657.3 142.7 671.7 125.3 686 121.2C700.3 117 714.7 126 728.8 130.8C743 135.7 757 136.3 771.2 135.7C785.3 135 799.7 133 814 128C828.3 123 842.7 115 857 115.2C871.3 115.3 885.7 123.7 892.8 127.8L900 132L900 0L892.8 0C885.7 0 871.3 0 857 0C842.7 0 828.3 0 814 0C799.7 0 785.3 0 771.2 0C757 0 743 0 728.8 0C714.7 0 700.3 0 686 0C671.7 0 657.3 0 643 0C628.7 0 614.3 0 600 0C585.7 0 571.3 0 557 0C542.7 0 528.3 0 514 0C499.7 0 485.3 0 471.2 0C457 0 443 0 428.8 0C414.7 0 400.3 0 386 0C371.7 0 357.3 0 343 0C328.7 0 314.3 0 300 0C285.7 0 271.3 0 257 0C242.7 0 228.3 0 214 0C199.7 0 185.3 0 171.2 0C157 0 143 0 128.8 0C114.7 0 100.3 0 86 0C71.7 0 57.3 0 43 0C28.7 0 14.3 0 7.2 0L0 0Z" fill="#c8ae9a"></path><path d="M0 79L7.2 85.2C14.3 91.3 28.7 103.7 43 110.8C57.3 118 71.7 120 86 118C100.3 116 114.7 110 128.8 108.2C143 106.3 157 108.7 171.2 109.8C185.3 111 199.7 111 214 106.3C228.3 101.7 242.7 92.3 257 95.5C271.3 98.7 285.7 114.3 300 118.5C314.3 122.7 328.7 115.3 343 108C357.3 100.7 371.7 93.3 386 95C400.3 96.7 414.7 107.3 428.8 107C443 106.7 457 95.3 471.2 94C485.3 92.7 499.7 101.3 514 103.8C528.3 106.3 542.7 102.7 557 99.2C571.3 95.7 585.7 92.3 600 94C614.3 95.7 628.7 102.3 643 103.7C657.3 105 671.7 101 686 100.8C700.3 100.7 714.7 104.3 728.8 107C743 109.7 757 111.3 771.2 106.8C785.3 102.3 799.7 91.7 814 94.8C828.3 98 842.7 115 857 123.3C871.3 131.7 885.7 131.3 892.8 131.2L900 131L900 0L892.8 0C885.7 0 871.3 0 857 0C842.7 0 828.3 0 814 0C799.7 0 785.3 0 771.2 0C757 0 743 0 728.8 0C714.7 0 700.3 0 686 0C671.7 0 657.3 0 643 0C628.7 0 614.3 0 600 0C585.7 0 571.3 0 557 0C542.7 0 528.3 0 514 0C499.7 0 485.3 0 471.2 0C457 0 443 0 428.8 0C414.7 0 400.3 0 386 0C371.7 0 357.3 0 343 0C328.7 0 314.3 0 300 0C285.7 0 271.3 0 257 0C242.7 0 228.3 0 214 0C199.7 0 185.3 0 171.2 0C157 0 143 0 128.8 0C114.7 0 100.3 0 86 0C71.7 0 57.3 0 43 0C28.7 0 14.3 0 7.2 0L0 0Z" fill="#d4c1ae"></path><path d="M0 64L7.2 69.7C14.3 75.3 28.7 86.7 43 88.8C57.3 91 71.7 84 86 83.7C100.3 83.3 114.7 89.7 128.8 87.7C143 85.7 157 75.3 171.2 71.8C185.3 68.3 199.7 71.7 214 76.8C228.3 82 242.7 89 257 86.5C271.3 84 285.7 72 300 67.5C314.3 63 328.7 66 343 70.3C357.3 74.7 371.7 80.3 386 81C400.3 81.7 414.7 77.3 428.8 76.5C443 75.7 457 78.3 471.2 75.5C485.3 72.7 499.7 64.3 514 63.5C528.3 62.7 542.7 69.3 557 71.8C571.3 74.3 585.7 72.7 600 72C614.3 71.3 628.7 71.7 643 73C657.3 74.3 671.7 76.7 686 77C700.3 77.3 714.7 75.7 728.8 74C743 72.3 757 70.7 771.2 75.5C785.3 80.3 799.7 91.7 814 90.7C828.3 89.7 842.7 76.3 857 72.7C871.3 69 885.7 75 892.8 78L900 81L900 0L892.8 0C885.7 0 871.3 0 857 0C842.7 0 828.3 0 814 0C799.7 0 785.3 0 771.2 0C757 0 743 0 728.8 0C714.7 0 700.3 0 686 0C671.7 0 657.3 0 643 0C628.7 0 614.3 0 600 0C585.7 0 571.3 0 557 0C542.7 0 528.3 0 514 0C499.7 0 485.3 0 471.2 0C457 0 443 0 428.8 0C414.7 0 400.3 0 386 0C371.7 0 357.3 0 343 0C328.7 0 314.3 0 300 0C285.7 0 271.3 0 257 0C242.7 0 228.3 0 214 0C199.7 0 185.3 0 171.2 0C157 0 143 0 128.8 0C114.7 0 100.3 0 86 0C71.7 0 57.3 0 43 0C28.7 0 14.3 0 7.2 0L0 0Z" fill="#e2d4c4"></path><path d="M0 42L7.2 41.8C14.3 41.7 28.7 41.3 43 46.3C57.3 51.3 71.7 61.7 86 63.7C100.3 65.7 114.7 59.3 128.8 57.8C143 56.3 157 59.7 171.2 57.3C185.3 55 199.7 47 214 47.3C228.3 47.7 242.7 56.3 257 60.8C271.3 65.3 285.7 65.7 300 63.7C314.3 61.7 328.7 57.3 343 58.8C357.3 60.3 371.7 67.7 386 69C400.3 70.3 414.7 65.7 428.8 60.8C443 56 457 51 471.2 49.8C485.3 48.7 499.7 51.3 514 51.7C528.3 52 542.7 50 557 49C571.3 48 585.7 48 600 49.2C614.3 50.3 628.7 52.7 643 56.5C657.3 60.3 671.7 65.7 686 67.8C700.3 70 714.7 69 728.8 68.7C743 68.3 757 68.7 771.2 64.8C785.3 61 799.7 53 814 51C828.3 49 842.7 53 857 54.7C871.3 56.3 885.7 55.7 892.8 55.3L900 55L900 0L892.8 0C885.7 0 871.3 0 857 0C842.7 0 828.3 0 814 0C799.7 0 785.3 0 771.2 0C757 0 743 0 728.8 0C714.7 0 700.3 0 686 0C671.7 0 657.3 0 643 0C628.7 0 614.3 0 600 0C585.7 0 571.3 0 557 0C542.7 0 528.3 0 514 0C499.7 0 485.3 0 471.2 0C457 0 443 0 428.8 0C414.7 0 400.3 0 386 0C371.7 0 357.3 0 343 0C328.7 0 314.3 0 300 0C285.7 0 271.3 0 257 0C242.7 0 228.3 0 214 0C199.7 0 185.3 0 171.2 0C157 0 143 0 128.8 0C114.7 0 100.3 0 86 0C71.7 0 57.3 0 43 0C28.7 0 14.3 0 7.2 0L0 0Z" fill="#f0e8db"></path><path d="M0 17L7.2 21.8C14.3 26.7 28.7 36.3 43 40C57.3 43.7 71.7 41.3 86 37.8C100.3 34.3 114.7 29.7 128.8 27.7C143 25.7 157 26.3 171.2 27.7C185.3 29 199.7 31 214 32.7C228.3 34.3 242.7 35.7 257 35.5C271.3 35.3 285.7 33.7 300 32.8C314.3 32 328.7 32 343 29.3C357.3 26.7 371.7 21.3 386 23.3C400.3 25.3 414.7 34.7 428.8 39.8C443 45 457 46 471.2 45C485.3 44 499.7 41 514 40.3C528.3 39.7 542.7 41.3 557 41.2C571.3 41 585.7 39 600 36.7C614.3 34.3 628.7 31.7 643 30.3C657.3 29 671.7 29 686 27.5C700.3 26 714.7 23 728.8 24.2C743 25.3 757 30.7 771.2 31C785.3 31.3 799.7 26.7 814 24.5C828.3 22.3 842.7 22.7 857 25.3C871.3 28 885.7 33 892.8 35.5L900 38L900 0L892.8 0C885.7 0 871.3 0 857 0C842.7 0 828.3 0 814 0C799.7 0 785.3 0 771.2 0C757 0 743 0 728.8 0C714.7 0 700.3 0 686 0C671.7 0 657.3 0 643 0C628.7 0 614.3 0 600 0C585.7 0 571.3 0 557 0C542.7 0 528.3 0 514 0C499.7 0 485.3 0 471.2 0C457 0 443 0 428.8 0C414.7 0 400.3 0 386 0C371.7 0 357.3 0 343 0C328.7 0 314.3 0 300 0C285.7 0 271.3 0 257 0C242.7 0 228.3 0 214 0C199.7 0 185.3 0 171.2 0C157 0 143 0 128.8 0C114.7 0 100.3 0 86 0C71.7 0 57.3 0 43 0C28.7 0 14.3 0 7.2 0L0 0Z" fill="#fffbf2"></path></svg>