<svg id="visual" viewBox="0 0 500 600" width="500" height="600" xmlns="http://www.w3.org/2000/svg" xmlns:xlink="http://www.w3.org/1999/xlink" version="1.1"><rect x="0" y="0" width="500" height="600" fill="#F1E6D2"></rect><defs><linearGradient id="grad1_0" x1="0%" y1="0%" x2="100%" y2="100%"><stop offset="30%" stop-color="#e8d8c4" stop-opacity="1"></stop><stop offset="70%" stop-color="#e8d8c4" stop-opacity="1"></stop></linearGradient></defs><defs><linearGradient id="grad1_1" x1="0%" y1="0%" x2="100%" y2="100%"><stop offset="30%" stop-color="#e8d8c4" stop-opacity="1"></stop><stop offset="70%" stop-color="#e9dac6" stop-opacity="1"></stop></linearGradient></defs><defs><linearGradient id="grad1_2" x1="0%" y1="0%" x2="100%" y2="100%"><stop offset="30%" stop-color="#ebddc9" stop-opacity="1"></stop><stop offset="70%" stop-color="#e9dac6" stop-opacity="1"></stop></linearGradient></defs><defs><linearGradient id="grad1_3" x1="0%" y1="0%" x2="100%" y2="100%"><stop offset="30%" stop-color="#ebddc9" stop-opacity="1"></stop><stop offset="70%" stop-color="#ecdfcb" stop-opacity="1"></stop></linearGradient></defs><defs><linearGradient id="grad1_4" x1="0%" y1="0%" x2="100%" y2="100%"><stop offset="30%" stop-color="#eee1cd" stop-opacity="1"></stop><stop offset="70%" stop-color="#ecdfcb" stop-opacity="1"></stop></linearGradient></defs><defs><linearGradient id="grad1_5" x1="0%" y1="0%" x2="100%" y2="100%"><stop offset="30%" stop-color="#eee1cd" stop-opacity="1"></stop><stop offset="70%" stop-color="#efe4d0" stop-opacity="1"></stop></linearGradient></defs><defs><linearGradient id="grad1_6" x1="0%" y1="0%" x2="100%" y2="100%"><stop offset="30%" stop-color="#f1e6d2" stop-opacity="1"></stop><stop offset="70%" stop-color="#efe4d0" stop-opacity="1"></stop></linearGradient></defs><defs><linearGradient id="grad2_0" x1="0%" y1="0%" x2="100%" y2="100%"><stop offset="30%" stop-color="#e8d8c4" stop-opacity="1"></stop><stop offset="70%" stop-color="#e8d8c4" stop-opacity="1"></stop></linearGradient></defs><defs><linearGradient id="grad2_1" x1="0%" y1="0%" x2="100%" y2="100%"><stop offset="30%" stop-color="#e9dac6" stop-opacity="1"></stop><stop offset="70%" stop-color="#e8d8c4" stop-opacity="1"></stop></linearGradient></defs><defs><linearGradient id="grad2_2" x1="0%" y1="0%" x2="100%" y2="100%"><stop offset="30%" stop-color="#e9dac6" stop-opacity="1"></stop><stop offset="70%" stop-color="#ebddc9" stop-opacity="1"></stop></linearGradient></defs><defs><linearGradient id="grad2_3" x1="0%" y1="0%" x2="100%" y2="100%"><stop offset="30%" stop-color="#ecdfcb" stop-opacity="1"></stop><stop offset="70%" stop-color="#ebddc9" stop-opacity="1"></stop></linearGradient></defs><defs><linearGradient id="grad2_4" x1="0%" y1="0%" x2="100%" y2="100%"><stop offset="30%" stop-color="#ecdfcb" stop-opacity="1"></stop><stop offset="70%" stop-color="#eee1cd" stop-opacity="1"></stop></linearGradient></defs><defs><linearGradient id="grad2_5" x1="0%" y1="0%" x2="100%" y2="100%"><stop offset="30%" stop-color="#efe4d0" stop-opacity="1"></stop><stop offset="70%" stop-color="#eee1cd" stop-opacity="1"></stop></linearGradient></defs><defs><linearGradient id="grad2_6" x1="0%" y1="0%" x2="100%" y2="100%"><stop offset="30%" stop-color="#efe4d0" stop-opacity="1"></stop><stop offset="70%" stop-color="#f1e6d2" stop-opacity="1"></stop></linearGradient></defs><g transform="translate(500, 0)"><path d="M0 351.5C-10.7 273.2 -21.3 194.9 -42.5 186.2C-63.7 177.6 -95.4 238.5 -125.4 260.4C-155.4 282.2 -183.8 265 -184.6 231.4C-185.3 197.9 -158.5 148.1 -157.9 125.9C-157.4 103.8 -183.1 109.2 -223.4 107.6C-263.8 106 -318.9 97.3 -342.6 78.2C-366.4 59.1 -358.9 29.5 -351.5 0L0 0Z" fill="#f0e5d1"></path><path d="M0 301.3C-9.1 234.1 -18.3 167 -36.4 159.6C-54.6 152.2 -81.7 204.5 -107.5 223.2C-133.2 241.9 -157.5 227.1 -158.2 198.4C-158.8 169.6 -135.9 127 -135.4 108C-134.9 89 -156.9 93.6 -191.5 92.2C-226.1 90.8 -273.3 83.4 -293.7 67C-314.1 50.7 -307.7 25.3 -301.3 0L0 0Z" fill="#efe2ce"></path><path d="M0 251C-7.6 195.1 -15.2 139.2 -30.4 133C-45.5 126.8 -68.1 170.4 -89.6 186C-111 201.6 -131.3 189.3 -131.8 165.3C-132.4 141.4 -113.2 105.8 -112.8 90C-112.4 74.1 -130.8 78 -159.6 76.9C-188.4 75.7 -227.8 69.5 -244.7 55.9C-261.7 42.2 -256.4 21.1 -251 0L0 0Z" fill="#ede0cc"></path><path d="M0 200.8C-6.1 156.1 -12.2 111.4 -24.3 106.4C-36.4 101.5 -54.5 136.3 -71.7 148.8C-88.8 161.3 -105 151.4 -105.5 132.2C-105.9 113.1 -90.6 84.6 -90.2 72C-89.9 59.3 -104.6 62.4 -127.7 61.5C-150.8 60.6 -182.2 55.6 -195.8 44.7C-209.4 33.8 -205.1 16.9 -200.8 0L0 0Z" fill="#ecdeca"></path><path d="M0 150.6C-4.6 117.1 -9.1 83.5 -18.2 79.8C-27.3 76.1 -40.9 102.2 -53.7 111.6C-66.6 121 -78.8 113.6 -79.1 99.2C-79.4 84.8 -67.9 63.5 -67.7 54C-67.4 44.5 -78.5 46.8 -95.8 46.1C-113.1 45.4 -136.7 41.7 -146.8 33.5C-157 25.3 -153.8 12.7 -150.6 0L0 0Z" fill="#eadbc7"></path><path d="M0 100.4C-3 78 -6.1 55.7 -12.1 53.2C-18.2 50.7 -27.2 68.2 -35.8 74.4C-44.4 80.6 -52.5 75.7 -52.7 66.1C-52.9 56.5 -45.3 42.3 -45.1 36C-45 29.7 -52.3 31.2 -63.8 30.7C-75.4 30.3 -91.1 27.8 -97.9 22.3C-104.7 16.9 -102.6 8.4 -100.4 0L0 0Z" fill="#e9d9c5"></path><path d="M0 50.2C-1.5 39 -3 27.8 -6.1 26.6C-9.1 25.4 -13.6 34.1 -17.9 37.2C-22.2 40.3 -26.3 37.9 -26.4 33.1C-26.5 28.3 -22.6 21.2 -22.6 18C-22.5 14.8 -26.2 15.6 -31.9 15.4C-37.7 15.1 -45.6 13.9 -48.9 11.2C-52.3 8.4 -51.3 4.2 -50.2 0L0 0Z" fill="#e8d8c4"></path></g><g transform="translate(0, 600)"><path d="M0 -351.5C17.5 -304.7 35.1 -257.9 55 -240.8C74.8 -223.7 97 -236.2 111.1 -230.6C125.1 -225.1 131.1 -201.6 160.9 -201.7C190.6 -201.8 244.2 -225.4 274.8 -219.1C305.4 -212.8 313 -176.6 298.2 -143.6C283.5 -110.6 246.4 -80.8 251.5 -57.4C256.7 -34 304.1 -17 351.5 0L0 0Z" fill="#f0e5d1"></path><path d="M0 -301.3C15 -261.2 30.1 -221.1 47.1 -206.4C64.1 -191.7 83.1 -202.4 95.2 -197.7C107.3 -193 112.4 -172.8 137.9 -172.9C163.4 -173 209.3 -193.2 235.5 -187.8C261.7 -182.4 268.3 -151.4 255.6 -123.1C243 -94.8 211.2 -69.3 215.6 -49.2C220 -29.2 260.6 -14.6 301.3 0L0 0Z" fill="#efe2ce"></path><path d="M0 -251C12.5 -217.6 25.1 -184.2 39.3 -172C53.4 -159.8 69.3 -168.7 79.3 -164.7C89.4 -160.8 93.6 -144 114.9 -144.1C136.2 -144.1 174.4 -161 196.3 -156.5C218.1 -152 223.5 -126.2 213 -102.6C202.5 -79 176 -57.7 179.7 -41C183.3 -24.3 217.2 -12.1 251 0L0 0Z" fill="#ede0cc"></path><path d="M0 -200.8C10 -174.1 20.1 -147.4 31.4 -137.6C42.8 -127.8 55.4 -134.9 63.5 -131.8C71.5 -128.7 74.9 -115.2 91.9 -115.3C108.9 -115.3 139.5 -128.8 157 -125.2C174.5 -121.6 178.8 -100.9 170.4 -82.1C162 -63.2 140.8 -46.2 143.7 -32.8C146.7 -19.4 173.8 -9.7 200.8 0L0 0Z" fill="#ecdeca"></path><path d="M0 -150.6C7.5 -130.6 15 -110.5 23.6 -103.2C32.1 -95.9 41.6 -101.2 47.6 -98.8C53.6 -96.5 56.2 -86.4 68.9 -86.4C81.7 -86.5 104.7 -96.6 117.8 -93.9C130.9 -91.2 134.1 -75.7 127.8 -61.5C121.5 -47.4 105.6 -34.6 107.8 -24.6C110 -14.6 130.3 -7.3 150.6 0L0 0Z" fill="#eadbc7"></path><path d="M0 -100.4C5 -87.1 10 -73.7 15.7 -68.8C21.4 -63.9 27.7 -67.5 31.7 -65.9C35.8 -64.3 37.5 -57.6 46 -57.6C54.5 -57.7 69.8 -64.4 78.5 -62.6C87.2 -60.8 89.4 -50.5 85.2 -41C81 -31.6 70.4 -23.1 71.9 -16.4C73.3 -9.7 86.9 -4.9 100.4 0L0 0Z" fill="#e9d9c5"></path><path d="M0 -50.2C2.5 -43.5 5 -36.8 7.9 -34.4C10.7 -32 13.9 -33.7 15.9 -32.9C17.9 -32.2 18.7 -28.8 23 -28.8C27.2 -28.8 34.9 -32.2 39.3 -31.3C43.6 -30.4 44.7 -25.2 42.6 -20.5C40.5 -15.8 35.2 -11.5 35.9 -8.2C36.7 -4.9 43.4 -2.4 50.2 0L0 0Z" fill="#e8d8c4"></path></g></svg>